<svg xmlns="http://www.w3.org/2000/svg" viewBox="0 0 512 512" style="height: 512px; width: 512px;"><defs><clipPath id="icon-bg"><polygon points="467.31,378,256,500,44.69,378,44.69,134,256,12,467.31,134" fill="#7d70ba" fill-opacity="1" transform="translate(-76.8, -76.8) scale(1.3, 1.3) rotate(0, 256, 256) skewX(0) skewY(0)" stroke="#ffffff" stroke-opacity="1" stroke-width="12"></polygon></clipPath></defs><polygon points="467.31,378,256,500,44.69,378,44.69,134,256,12,467.31,134" fill="#7d70ba" fill-opacity="1" stroke="#ffffff" stroke-opacity="1" stroke-width="12"></polygon><g class="" transform="translate(0,-1)" style=""><path d="M217 28.098v455.804l142-42.597V70.697zm159.938 26.88l.062 2.327V87h16V55zM119 55v117.27h18V73h62V55zm258 50v16h16v-16zm0 34v236h16V139zm-240 58.727V233H41v46h96v35.273L195.273 256zM244 232c6.627 0 12 10.745 12 24s-5.373 24-12 24-12-10.745-12-24 5.373-24 12-24zM137 339.73h-18V448h18zM377 393v14h16v-14zm0 32v23h16v-23zM32 471v18h167v-18zm290.652 0l-60 18H480v-18z" fill="#ffffff" fill-opacity="1" clip-path="url(#icon-bg)" transform="translate(76.8, 76.8) scale(0.7, 0.7) rotate(0, 256, 256) skewX(0) skewY(0)"></path></g></svg>