<svg id="visual" viewBox="0 0 900 675" width="900" height="675" xmlns="http://www.w3.org/2000/svg" xmlns:xlink="http://www.w3.org/1999/xlink" version="1.1"><rect x="0" y="0" width="900" height="675" fill="#7D70BA"></rect><path d="M0 394L21.5 400.8C43 407.7 86 421.3 128.8 425.5C171.7 429.7 214.3 424.3 257.2 418.3C300 412.3 343 405.7 385.8 408.3C428.7 411 471.3 423 514.2 424.5C557 426 600 417 642.8 428C685.7 439 728.3 470 771.2 467.7C814 465.3 857 429.7 878.5 411.8L900 394L900 676L878.5 676C857 676 814 676 771.2 676C728.3 676 685.7 676 642.8 676C600 676 557 676 514.2 676C471.3 676 428.7 676 385.8 676C343 676 300 676 257.2 676C214.3 676 171.7 676 128.8 676C86 676 43 676 21.5 676L0 676Z" fill="#fa7268"></path><path d="M0 534L21.5 533.3C43 532.7 86 531.3 128.8 524.5C171.7 517.7 214.3 505.3 257.2 494.3C300 483.3 343 473.7 385.8 465.8C428.7 458 471.3 452 514.2 459.5C557 467 600 488 642.8 491.7C685.7 495.3 728.3 481.7 771.2 476.8C814 472 857 476 878.5 478L900 480L900 676L878.5 676C857 676 814 676 771.2 676C728.3 676 685.7 676 642.8 676C600 676 557 676 514.2 676C471.3 676 428.7 676 385.8 676C343 676 300 676 257.2 676C214.3 676 171.7 676 128.8 676C86 676 43 676 21.5 676L0 676Z" fill="#ef5f67"></path><path d="M0 495L21.5 498.7C43 502.3 86 509.7 128.8 512.2C171.7 514.7 214.3 512.3 257.2 511.2C300 510 343 510 385.8 518.3C428.7 526.7 471.3 543.3 514.2 547C557 550.7 600 541.3 642.8 541.3C685.7 541.3 728.3 550.7 771.2 550.3C814 550 857 540 878.5 535L900 530L900 676L878.5 676C857 676 814 676 771.2 676C728.3 676 685.7 676 642.8 676C600 676 557 676 514.2 676C471.3 676 428.7 676 385.8 676C343 676 300 676 257.2 676C214.3 676 171.7 676 128.8 676C86 676 43 676 21.5 676L0 676Z" fill="#e34c67"></path><path d="M0 565L21.5 563C43 561 86 557 128.8 564C171.7 571 214.3 589 257.2 597.5C300 606 343 605 385.8 597.3C428.7 589.7 471.3 575.3 514.2 575.7C557 576 600 591 642.8 595.7C685.7 600.3 728.3 594.7 771.2 584.8C814 575 857 561 878.5 554L900 547L900 676L878.5 676C857 676 814 676 771.2 676C728.3 676 685.7 676 642.8 676C600 676 557 676 514.2 676C471.3 676 428.7 676 385.8 676C343 676 300 676 257.2 676C214.3 676 171.7 676 128.8 676C86 676 43 676 21.5 676L0 676Z" fill="#d53867"></path><path d="M0 633L21.5 631.5C43 630 86 627 128.8 625C171.7 623 214.3 622 257.2 623.8C300 625.7 343 630.3 385.8 628.7C428.7 627 471.3 619 514.2 618.5C557 618 600 625 642.8 624.3C685.7 623.7 728.3 615.3 771.2 610C814 604.7 857 602.3 878.5 601.2L900 600L900 676L878.5 676C857 676 814 676 771.2 676C728.3 676 685.7 676 642.8 676C600 676 557 676 514.2 676C471.3 676 428.7 676 385.8 676C343 676 300 676 257.2 676C214.3 676 171.7 676 128.8 676C86 676 43 676 21.5 676L0 676Z" fill="#c62368"></path></svg>