<svg xmlns="http://www.w3.org/2000/svg" viewBox="0 0 512 512" style="height: 512px; width: 512px;"><defs><filter id="shadow-1" height="300%" width="300%" x="-100%" y="-100%"><feFlood flood-color="rgba(255, 255, 255, 1)" result="flood"></feFlood><feComposite in="flood" in2="SourceGraphic" operator="atop" result="composite"></feComposite>0<feOffset dy="0" result="offset" dx="0"></feOffset><feComposite in="SourceGraphic" in2="offset" operator="over"></feComposite></filter></defs><polygon points="445.4,334.45,334.45,445.4,177.55,445.4,66.6,334.45,66.6,177.55,177.55,66.6,334.45,66.6,445.4,177.55" fill="#7d70ba" fill-opacity="1" stroke="#ffffff" stroke-opacity="1" stroke-width="51"></polygon><g class="" transform="translate(0,0)" style=""><path d="M256 21C126.426 21 21 126.426 21 256s105.426 235 235 235 235-105.426 235-235S385.574 21 256 21zm0 36c110.118 0 199 88.882 199 199s-88.882 199-199 199S57 366.118 57 256 145.882 57 256 57zm-7.352 36.744c-8.227 0-15.317 2.976-21.27 8.928-5.776 5.952-8.665 12.955-8.665 21.008 0 8.227 2.89 15.23 8.666 21.006 5.95 5.776 13.04 8.666 21.268 8.666 8.228 0 15.23-2.89 21.006-8.666 5.777-5.777 8.666-12.78 8.666-21.006 0-8.053-2.976-15.056-8.927-21.008-5.777-5.952-12.692-8.928-20.745-8.928zm-62.757 82.453v28.096h46.215v186.13H185.89v27.833h140.22v-27.834h-45.69V176.197h-94.53z" fill="#ffffff" fill-opacity="1" transform="translate(25.6, 25.6) scale(0.9, 0.9) rotate(0, 256, 256) skewX(0) skewY(0)" filter="url(#shadow-1)" stroke="#ffffff" stroke-opacity="1" stroke-width="5"></path></g></svg>
